<svg width="313" height="316" viewBox="0 0 313 316" fill="none" xmlns="http://www.w3.org/2000/svg">
<rect x="24.8422" y="308.818" width="69.5567" height="7.18176" fill="#B8A590"></rect>
<rect x="94.3966" y="301.636" width="64.5884" height="7.18176" fill="#B8A590"></rect>
<rect x="158.984" y="308.818" width="69.5567" height="7.18176" fill="#B8A590"></rect>
<rect x="228.54" y="301.636" width="24.8417" height="7.18176" fill="#B8A590"></rect>
<rect x="253.38" y="308.818" width="44.715" height="7.18176" fill="#B8A590"></rect>
<rect width="4.96834" height="172.362" transform="matrix(-1 0 0 1 9.93628 43.0943)" fill="#B8A590"></rect>
<rect x="9.93628" y="215.458" width="4.96834" height="86.1811" fill="#B8A590"></rect>
<rect x="298.096" y="258.547" width="4.96834" height="50.2723" fill="#B8A590"></rect>
<rect x="303.065" y="114.913" width="4.96834" height="143.635" fill="#B8A590"></rect>
<rect x="298.096" y="93.3681" width="4.96834" height="21.5453" fill="#B8A590"></rect>
<rect x="293.128" y="71.8212" width="4.96834" height="21.5453" fill="#B8A590"></rect>
<rect x="298.096" y="64.6388" width="9.93667" height="7.18176" fill="#B8A590"></rect>
<rect x="308.032" y="21.5474" width="4.96834" height="43.0906" fill="#B8A590"></rect>
<rect x="303.065" y="14.3674" width="4.96834" height="7.18176" fill="#B8A590"></rect>
<rect x="218.603" y="7.18509" width="84.4617" height="7.18176" fill="#B8A590"></rect>
<rect x="183.826" y="14.3674" width="34.7783" height="7.18176" fill="#B8A590"></rect>
<rect x="44.7136" y="7.18509" width="139.113" height="7.18176" fill="#B8A590"></rect>
<rect x="29.8092" y="14.3674" width="14.905" height="7.18176" fill="#B8A590"></rect>
<rect x="24.8422" y="21.5474" width="4.96834" height="14.3635" fill="#B8A590"></rect>
<rect x="9.93628" y="35.912" width="14.905" height="7.18176" fill="#B8A590"></rect>
<rect x="14.9032" y="301.636" width="9.93667" height="7.18176" fill="#B8A590"></rect>
<rect x="44.7136" y="14.3674" width="139.113" height="287.27" fill="#B8A590"></rect>
<rect x="29.8092" y="21.5474" width="14.905" height="280.089" fill="#B8A590"></rect>
<rect x="14.9032" y="43.0943" width="14.905" height="172.362" fill="#B8A590"></rect>
<rect x="9.93628" y="43.0943" width="4.96834" height="172.362" fill="#B8A590"></rect>
<rect x="298.096" y="114.913" width="4.96834" height="143.635" fill="#B8A590"></rect>
<rect x="298.096" y="21.5474" width="9.93667" height="43.0906" fill="#B8A590"></rect>
<rect x="14.9032" y="215.458" width="14.905" height="86.1811" fill="#B8A590"></rect>
<rect x="24.8422" y="301.636" width="69.5567" height="7.18176" fill="#B8A590"></rect>
<rect x="158.984" y="301.636" width="69.5567" height="7.18176" fill="#B8A590"></rect>
<rect x="253.38" y="114.913" width="44.715" height="193.908" fill="#B8A590"></rect>
<rect x="183.826" y="21.5474" width="69.5567" height="280.089" fill="#B8A590"></rect>
<rect x="218.603" y="14.3674" width="84.4617" height="7.18176" fill="#B8A590"></rect>
<rect x="293.128" y="93.3681" width="4.96834" height="21.5453" fill="#B8A590"></rect>
<rect x="293.128" y="21.5474" width="4.96834" height="50.2723" fill="#B8A590"></rect>
<rect x="253.38" y="21.5474" width="39.7467" height="93.3629" fill="#B8A590"></rect>
<rect x="19.8744" y="301.633" width="69.5567" height="7.18176" fill="#DCC7AF"></rect>
<rect x="89.4292" y="294.451" width="64.5884" height="7.18176" fill="#DCC7AF"></rect>
<rect x="158.985" y="301.633" width="64.5884" height="7.18176" fill="#DCC7AF"></rect>
<rect x="223.572" y="294.451" width="24.8417" height="7.18176" fill="#DCC7AF"></rect>
<rect x="253.381" y="301.633" width="39.7467" height="7.18176" fill="#DCC7AF"></rect>
<rect width="4.96834" height="172.362" transform="matrix(-1 0 0 1 4.96838 35.9092)" fill="#DCC7AF"></rect>
<rect x="4.96838" y="208.273" width="4.96834" height="86.1811" fill="#DCC7AF"></rect>
<rect x="293.127" y="251.362" width="4.96834" height="50.2723" fill="#DCC7AF"></rect>
<rect x="298.097" y="107.727" width="4.96834" height="143.635" fill="#DCC7AF"></rect>
<rect x="293.127" y="86.183" width="4.96834" height="21.5453" fill="#DCC7AF"></rect>
<rect x="288.16" y="64.636" width="4.96834" height="21.5453" fill="#DCC7AF"></rect>
<rect x="293.127" y="57.4537" width="9.93667" height="7.18176" fill="#DCC7AF"></rect>
<rect x="303.064" y="14.3622" width="4.96834" height="43.0906" fill="#DCC7AF"></rect>
<rect x="298.097" y="7.18231" width="4.96834" height="7.18176" fill="#DCC7AF"></rect>
<rect x="213.635" width="84.4617" height="7.18176" fill="#DCC7AF"></rect>
<rect x="178.858" y="7.18231" width="34.7783" height="7.18176" fill="#DCC7AF"></rect>
<rect x="39.7461" width="139.113" height="7.18176" fill="#DCC7AF"></rect>
<rect x="24.8416" y="7.18231" width="14.905" height="7.18176" fill="#DCC7AF"></rect>
<rect x="19.8744" y="14.3622" width="4.96834" height="14.3635" fill="#DCC7AF"></rect>
<rect x="4.96838" y="28.7268" width="14.905" height="7.18176" fill="#DCC7AF"></rect>
<rect x="9.93555" y="294.451" width="9.93667" height="7.18176" fill="#DCC7AF"></rect>
<rect x="39.746" y="7.18231" width="139.113" height="287.27" fill="#DCC7AF"></rect>
<rect x="24.8416" y="14.3622" width="14.905" height="280.089" fill="#DCC7AF"></rect>
<rect x="9.93555" y="35.9092" width="14.905" height="172.362" fill="#DCC7AF"></rect>
<rect x="4.96838" y="35.9092" width="4.96834" height="172.362" fill="#DCC7AF"></rect>
<rect x="293.127" y="107.727" width="4.96834" height="143.635" fill="#DCC7AF"></rect>
<rect x="293.127" y="14.3622" width="9.93667" height="43.0906" fill="#DCC7AF"></rect>
<rect x="9.93555" y="208.273" width="14.905" height="86.1811" fill="#DCC7AF"></rect>
<rect x="19.8744" y="294.451" width="69.5567" height="7.18176" fill="#DCC7AF"></rect>
<rect x="154.016" y="294.451" width="69.5567" height="7.18176" fill="#DCC7AF"></rect>
<rect x="248.412" y="107.727" width="44.715" height="193.908" fill="#DCC7AF"></rect>
<rect x="178.858" y="14.3622" width="69.5567" height="280.089" fill="#DCC7AF"></rect>
<rect x="213.635" y="7.18231" width="84.4617" height="7.18176" fill="#DCC7AF"></rect>
<rect x="288.16" y="86.183" width="4.96834" height="21.5453" fill="#DCC7AF"></rect>
<rect x="288.16" y="14.3622" width="4.96834" height="50.2723" fill="#DCC7AF"></rect>
<rect x="248.412" y="14.3622" width="39.7467" height="93.3629" fill="#DCC7AF"></rect>
<rect x="19.8744" y="28.7268" width="4.96834" height="7.18176" fill="#DCC7AF"></rect>
<rect x="283.191" y="86.183" width="4.96834" height="143.635" fill="#BAA48B"></rect>
<rect x="283.191" y="86.183" width="4.96834" height="143.635" fill="#BAA48B"></rect>
<rect x="24.8414" y="86.183" width="4.96834" height="143.635" fill="#BAA48B"></rect>
<rect x="29.8088" y="64.6384" width="4.96834" height="35.9088" transform="rotate(-180 29.8088 64.6384)" fill="#BAA48B"></rect>
<rect x="49.6821" y="28.7292" width="7.18176" height="19.8733" transform="rotate(90 49.6821 28.7292)" fill="#BAA48B"></rect>
<rect x="29.8085" y="43.0942" width="4.96834" height="7.18176" fill="#BAA48B"></rect>
<rect x="34.7792" y="35.912" width="4.96834" height="7.18176" fill="#BAA48B"></rect>
<rect x="39.7462" y="50.2741" width="4.96834" height="7.18176" fill="#BAA48B"></rect>
<rect width="4.96834" height="35.9088" transform="matrix(-1 0 0 1 29.8088 251.36)" fill="#BAA48B"></rect>
<rect width="7.18176" height="19.8733" transform="matrix(0 -1 -1 0 49.6821 287.269)" fill="#BAA48B"></rect>
<rect width="4.96834" height="7.18176" transform="matrix(1 0 0 -1 29.8085 272.907)" fill="#BAA48B"></rect>
<rect width="4.96834" height="7.18176" transform="matrix(1 0 0 -1 34.7792 280.09)" fill="#BAA48B"></rect>
<rect width="4.96834" height="7.18176" transform="matrix(1 0 0 -1 39.7462 265.725)" fill="#BAA48B"></rect>
<rect x="283.192" y="251.36" width="4.96834" height="35.9088" fill="#BAA48B"></rect>
<rect x="263.319" y="287.269" width="7.18176" height="19.8733" transform="rotate(-90 263.319 287.269)" fill="#BAA48B"></rect>
<rect x="283.193" y="272.907" width="4.96834" height="7.18176" transform="rotate(180 283.193 272.907)" fill="#BAA48B"></rect>
<rect x="278.222" y="280.09" width="4.96834" height="7.18176" transform="rotate(180 278.222 280.09)" fill="#BAA48B"></rect>
<rect x="273.255" y="265.725" width="4.96834" height="7.18176" transform="rotate(180 273.255 265.725)" fill="#BAA48B"></rect>
<rect width="4.96834" height="35.9088" transform="matrix(1 0 0 -1 283.192 64.6384)" fill="#BAA48B"></rect>
<rect width="7.18176" height="19.8733" transform="matrix(0 1 1 0 263.319 28.7292)" fill="#BAA48B"></rect>
<rect width="4.96834" height="7.18176" transform="matrix(-1 0 0 1 283.193 43.0942)" fill="#BAA48B"></rect>
<rect width="4.96834" height="7.18176" transform="matrix(-1 0 0 1 278.222 35.912)" fill="#BAA48B"></rect>
<rect width="4.96834" height="7.18176" transform="matrix(-1 0 0 1 273.255 50.2741)" fill="#BAA48B"></rect>
<rect width="4.96834" height="143.635" transform="matrix(1 0 0 -1 298.097 251.362)" fill="#E9D2B8"></rect>
<rect x="298.097" y="301.633" width="4.96834" height="50.2723" transform="rotate(180 298.097 301.633)" fill="#E9D2B8"></rect>
<rect x="293.127" y="308.815" width="39.7467" height="7.18176" transform="rotate(180 293.127 308.815)" fill="#E9D2B8"></rect>
<rect x="253.381" y="301.633" width="29.81" height="7.18176" transform="rotate(180 253.381 301.633)" fill="#E9D2B8"></rect>
<rect x="223.573" y="308.815" width="64.5884" height="7.18176" transform="rotate(180 223.573 308.815)" fill="#E9D2B8"></rect>
<rect x="158.985" y="301.633" width="69.5567" height="7.18176" transform="rotate(180 158.985 301.633)" fill="#E9D2B8"></rect>
<rect x="89.4292" y="308.815" width="69.5567" height="7.18176" transform="rotate(180 89.4292 308.815)" fill="#E9D2B8"></rect>
<rect x="19.8743" y="301.633" width="9.93667" height="7.18176" transform="rotate(180 19.8743 301.633)" fill="#E9D2B8"></rect>
<rect x="9.93542" y="294.453" width="4.96834" height="86.1811" transform="rotate(180 9.93542 294.453)" fill="#E9D2B8"></rect>
<rect x="4.96826" y="208.273" width="4.96834" height="172.362" transform="rotate(180 4.96826 208.273)" fill="#E9D2B8"></rect>
<rect width="4.96834" height="14.3635" transform="matrix(1 0 0 -1 293.127 100.545)" fill="#E9D2B8"></rect>
<rect width="4.96834" height="21.5453" transform="matrix(1 0 0 -1 288.16 86.183)" fill="#E9D2B8"></rect>
<rect width="4.96834" height="7.18176" transform="matrix(1 0 0 -1 298.097 64.636)" fill="#E9D2B8"></rect>
<rect width="4.96834" height="14.3635" transform="matrix(1 0 0 -1 298.097 21.5445)" fill="#E9D2B8"></rect>
<rect width="4.96834" height="14.3635" transform="matrix(1 0 0 -1 293.127 14.3646)" fill="#E9D2B8"></rect>
<rect width="4.96834" height="43.0906" transform="matrix(1 0 0 -1 303.064 57.4537)" fill="#E9D2B8"></rect>
<rect x="4.96826" y="28.7293" width="14.905" height="7.18176" fill="#E9D2B8"></rect>
<rect x="19.8743" y="14.3646" width="4.96834" height="14.3635" fill="#E9D2B8"></rect>
<rect x="24.8414" y="7.18231" width="14.905" height="7.18176" fill="#E9D2B8"></rect>
<rect x="39.7457" width="139.113" height="7.18176" fill="#E9D2B8"></rect>
<rect x="178.858" y="7.18231" width="34.7783" height="7.18176" fill="#E9D2B8"></rect>
<rect x="213.635" width="79.4934" height="7.18176" fill="#E9D2B8"></rect>
<rect x="293.127" y="193.908" width="4.96834" height="14.3635" fill="#E9D2B8"></rect>
<rect x="293.127" y="129.272" width="4.96834" height="7.18176" fill="#E9D2B8"></rect>
<rect x="293.127" y="28.7293" width="9.93667" height="7.18176" fill="#E9D2B8"></rect>
<rect x="298.097" y="35.9092" width="4.96834" height="7.18176" fill="#E9D2B8"></rect>
<rect x="228.541" y="7.18231" width="34.7783" height="7.18176" fill="#E9D2B8"></rect>
<rect x="238.477" y="14.3646" width="9.93667" height="7.18176" fill="#E9D2B8"></rect>
<rect x="124.206" y="7.18231" width="9.93667" height="7.18176" fill="#E9D2B8"></rect>
<rect x="129.174" y="14.3646" width="4.96834" height="7.18176" fill="#E9D2B8"></rect>
<rect x="158.985" y="7.18231" width="14.905" height="7.18176" fill="#E9D2B8"></rect>
<rect x="39.7456" y="7.18231" width="4.96834" height="7.18176" fill="#E9D2B8"></rect>
<rect x="39.7456" y="14.3646" width="9.93667" height="7.18176" fill="#E9D2B8"></rect>
<rect x="4.96826" y="35.9092" width="4.96834" height="50.2723" fill="#E9D2B8"></rect>
<rect x="9.93542" y="35.9092" width="4.96834" height="28.727" fill="#E9D2B8"></rect>
<rect x="4.96826" y="143.637" width="4.96834" height="35.9088" fill="#E9D2B8"></rect>
<rect x="9.93542" y="172.364" width="4.96834" height="21.5453" fill="#E9D2B8"></rect>
<rect x="4.96826" y="193.908" width="4.96834" height="14.3635" fill="#E9D2B8"></rect>
<rect x="9.93542" y="215.452" width="4.96834" height="50.2723" fill="#E9D2B8"></rect>
<rect x="9.93542" y="272.909" width="4.96834" height="7.18176" fill="#E9D2B8"></rect>
<rect x="39.7456" y="294.453" width="14.905" height="7.18176" fill="#E9D2B8"></rect>
<rect x="59.6202" y="294.453" width="9.93667" height="7.18176" fill="#E9D2B8"></rect>
<rect x="119.239" y="287.271" width="19.8733" height="7.18176" fill="#E9D2B8"></rect>
<rect x="188.795" y="294.453" width="4.96834" height="7.18176" fill="#E9D2B8"></rect>
<rect x="208.667" y="294.453" width="9.93667" height="7.18176" fill="#E9D2B8"></rect>
<rect x="238.477" y="287.271" width="9.93667" height="7.18176" fill="#E9D2B8"></rect>
<rect x="273.255" y="294.453" width="4.96834" height="7.18176" fill="#E9D2B8"></rect>
</svg>