<svg width="323" height="452" viewBox="0 0 323 452" fill="none" xmlns="http://www.w3.org/2000/svg">
<rect x="25.6357" y="441.727" width="71.7782" height="10.2726" fill="#B8A590"/>
<rect x="97.4125" y="431.454" width="66.6512" height="10.2726" fill="#B8A590"/>
<rect x="164.063" y="441.727" width="71.7782" height="10.2726" fill="#B8A590"/>
<rect x="235.842" y="431.454" width="25.6351" height="10.2726" fill="#B8A590"/>
<rect x="261.475" y="441.727" width="46.1431" height="10.2726" fill="#B8A590"/>
<rect width="5.12701" height="246.544" transform="matrix(-1 0 0 1 10.2535 61.6412)" fill="#B8A590"/>
<rect x="10.2535" y="308.186" width="5.12701" height="123.272" fill="#B8A590"/>
<rect x="307.62" y="369.82" width="5.12701" height="71.9085" fill="#B8A590"/>
<rect x="312.747" y="164.369" width="5.12701" height="205.453" fill="#B8A590"/>
<rect x="307.62" y="133.552" width="5.12701" height="30.8179" fill="#B8A590"/>
<rect x="302.493" y="102.732" width="5.12701" height="30.8179" fill="#B8A590"/>
<rect x="307.62" y="92.4581" width="10.254" height="10.2726" fill="#B8A590"/>
<rect x="317.873" y="30.8209" width="5.12701" height="61.6359" fill="#B8A590"/>
<rect x="312.747" y="20.5509" width="5.12701" height="10.2726" fill="#B8A590"/>
<rect x="225.587" y="10.2775" width="87.1592" height="10.2726" fill="#B8A590"/>
<rect x="189.698" y="20.5509" width="35.8891" height="10.2726" fill="#B8A590"/>
<rect x="46.1418" y="10.2775" width="143.556" height="10.2726" fill="#B8A590"/>
<rect x="30.7613" y="20.5509" width="15.381" height="10.2726" fill="#B8A590"/>
<rect x="25.6357" y="30.8209" width="5.12701" height="20.5453" fill="#B8A590"/>
<rect x="10.2535" y="51.3678" width="15.381" height="10.2726" fill="#B8A590"/>
<rect x="15.3791" y="431.454" width="10.254" height="10.2726" fill="#B8A590"/>
<rect x="46.1418" y="20.5509" width="143.556" height="410.906" fill="#B8A590"/>
<rect x="30.7613" y="30.8209" width="15.381" height="400.633" fill="#B8A590"/>
<rect x="15.3791" y="61.6412" width="15.381" height="246.544" fill="#B8A590"/>
<rect x="10.2535" y="61.6412" width="5.12701" height="246.544" fill="#B8A590"/>
<rect x="307.62" y="164.369" width="5.12701" height="205.453" fill="#B8A590"/>
<rect x="307.62" y="30.8209" width="10.254" height="61.6359" fill="#B8A590"/>
<rect x="15.3791" y="308.186" width="15.381" height="123.272" fill="#B8A590"/>
<rect x="25.6357" y="431.454" width="71.7782" height="10.2726" fill="#B8A590"/>
<rect x="164.063" y="431.454" width="71.7782" height="10.2726" fill="#B8A590"/>
<rect x="261.475" y="164.369" width="46.1431" height="277.361" fill="#B8A590"/>
<rect x="189.698" y="30.8209" width="71.7782" height="400.633" fill="#B8A590"/>
<rect x="225.587" y="20.5509" width="87.1592" height="10.2726" fill="#B8A590"/>
<rect x="302.493" y="133.552" width="5.12701" height="30.8179" fill="#B8A590"/>
<rect x="302.493" y="30.8209" width="5.12701" height="71.9085" fill="#B8A590"/>
<rect x="261.475" y="30.8209" width="41.0161" height="133.544" fill="#B8A590"/>
<rect x="20.5092" y="431.45" width="71.7782" height="10.2726" fill="#DCC7AF"/>
<rect x="92.2861" y="421.176" width="66.6512" height="10.2726" fill="#DCC7AF"/>
<rect x="164.064" y="431.45" width="66.6512" height="10.2726" fill="#DCC7AF"/>
<rect x="230.715" y="421.176" width="25.6351" height="10.2726" fill="#DCC7AF"/>
<rect x="261.476" y="431.45" width="41.0161" height="10.2726" fill="#DCC7AF"/>
<rect width="5.12701" height="246.544" transform="matrix(-1 0 0 1 5.12701 51.3637)" fill="#DCC7AF"/>
<rect x="5.12701" y="297.909" width="5.12701" height="123.272" fill="#DCC7AF"/>
<rect x="302.492" y="359.543" width="5.12701" height="71.9085" fill="#DCC7AF"/>
<rect x="307.621" y="154.091" width="5.12701" height="205.453" fill="#DCC7AF"/>
<rect x="302.492" y="123.274" width="5.12701" height="30.8179" fill="#DCC7AF"/>
<rect x="297.366" y="92.454" width="5.12701" height="30.8179" fill="#DCC7AF"/>
<rect x="302.492" y="82.1806" width="10.254" height="10.2726" fill="#DCC7AF"/>
<rect x="312.747" y="20.5434" width="5.12701" height="61.6359" fill="#DCC7AF"/>
<rect x="307.621" y="10.2735" width="5.12701" height="10.2726" fill="#DCC7AF"/>
<rect x="220.46" width="87.1592" height="10.2726" fill="#DCC7AF"/>
<rect x="184.572" y="10.2735" width="35.8891" height="10.2726" fill="#DCC7AF"/>
<rect x="41.0154" width="143.556" height="10.2726" fill="#DCC7AF"/>
<rect x="25.6349" y="10.2735" width="15.381" height="10.2726" fill="#DCC7AF"/>
<rect x="20.5092" y="20.5434" width="5.12701" height="20.5453" fill="#DCC7AF"/>
<rect x="5.12701" y="41.0903" width="15.381" height="10.2726" fill="#DCC7AF"/>
<rect x="10.2527" y="421.176" width="10.254" height="10.2726" fill="#DCC7AF"/>
<rect x="41.0154" y="10.2735" width="143.556" height="410.906" fill="#DCC7AF"/>
<rect x="25.6349" y="20.5434" width="15.381" height="400.633" fill="#DCC7AF"/>
<rect x="10.2527" y="51.3637" width="15.381" height="246.544" fill="#DCC7AF"/>
<rect x="5.12701" y="51.3637" width="5.12701" height="246.544" fill="#DCC7AF"/>
<rect x="302.492" y="154.091" width="5.12701" height="205.453" fill="#DCC7AF"/>
<rect x="302.492" y="20.5434" width="10.254" height="61.6359" fill="#DCC7AF"/>
<rect x="10.2527" y="297.909" width="15.381" height="123.272" fill="#DCC7AF"/>
<rect x="20.5092" y="421.176" width="71.7782" height="10.2726" fill="#DCC7AF"/>
<rect x="158.937" y="421.176" width="71.7782" height="10.2726" fill="#DCC7AF"/>
<rect x="256.349" y="154.091" width="46.1431" height="277.361" fill="#DCC7AF"/>
<rect x="184.572" y="20.5434" width="71.7782" height="400.633" fill="#DCC7AF"/>
<rect x="220.46" y="10.2735" width="87.1592" height="10.2726" fill="#DCC7AF"/>
<rect x="297.366" y="123.274" width="5.12701" height="30.8179" fill="#DCC7AF"/>
<rect x="297.366" y="20.5434" width="5.12701" height="71.9085" fill="#DCC7AF"/>
<rect x="256.349" y="20.5434" width="41.0161" height="133.544" fill="#DCC7AF"/>
<rect x="20.5092" y="41.0903" width="5.12701" height="10.2726" fill="#DCC7AF"/>
<rect x="292.239" y="123.274" width="5.12701" height="205.453" fill="#BAA48B"/>
<rect x="292.239" y="123.274" width="5.12701" height="205.453" fill="#BAA48B"/>
<rect x="25.6349" y="123.274" width="5.12701" height="205.453" fill="#BAA48B"/>
<rect x="30.761" y="92.4574" width="5.12701" height="51.3632" transform="rotate(-180 30.761 92.4574)" fill="#BAA48B"/>
<rect x="51.269" y="41.0937" width="10.2726" height="20.5081" transform="rotate(90 51.269 41.0937)" fill="#BAA48B"/>
<rect x="30.7609" y="61.6412" width="5.12701" height="10.2726" fill="#BAA48B"/>
<rect x="35.89" y="51.3677" width="5.12701" height="10.2726" fill="#BAA48B"/>
<rect x="41.0157" y="71.9111" width="5.12701" height="10.2726" fill="#BAA48B"/>
<rect width="5.12701" height="51.3632" transform="matrix(-1 0 0 1 30.761 359.54)" fill="#BAA48B"/>
<rect width="10.2726" height="20.5081" transform="matrix(0 -1 -1 0 51.269 410.904)" fill="#BAA48B"/>
<rect width="5.12701" height="10.2726" transform="matrix(1 0 0 -1 30.7609 390.361)" fill="#BAA48B"/>
<rect width="5.12701" height="10.2726" transform="matrix(1 0 0 -1 35.89 400.634)" fill="#BAA48B"/>
<rect width="5.12701" height="10.2726" transform="matrix(1 0 0 -1 41.0157 380.087)" fill="#BAA48B"/>
<rect x="292.24" y="359.54" width="5.12701" height="51.3632" fill="#BAA48B"/>
<rect x="271.732" y="410.904" width="10.2726" height="20.5081" transform="rotate(-90 271.732 410.904)" fill="#BAA48B"/>
<rect x="292.24" y="390.361" width="5.12701" height="10.2726" transform="rotate(180 292.24 390.361)" fill="#BAA48B"/>
<rect x="287.111" y="400.634" width="5.12701" height="10.2726" transform="rotate(180 287.111 400.634)" fill="#BAA48B"/>
<rect x="281.986" y="380.087" width="5.12701" height="10.2726" transform="rotate(180 281.986 380.087)" fill="#BAA48B"/>
<rect width="5.12701" height="51.3632" transform="matrix(1 0 0 -1 292.24 92.4574)" fill="#BAA48B"/>
<rect width="10.2726" height="20.5081" transform="matrix(0 1 1 0 271.732 41.0937)" fill="#BAA48B"/>
<rect width="5.12701" height="10.2726" transform="matrix(-1 0 0 1 292.24 61.6412)" fill="#BAA48B"/>
<rect width="5.12701" height="10.2726" transform="matrix(-1 0 0 1 287.111 51.3677)" fill="#BAA48B"/>
<rect width="5.12701" height="10.2726" transform="matrix(-1 0 0 1 281.986 71.9111)" fill="#BAA48B"/>
<rect width="5.12701" height="205.453" transform="matrix(1 0 0 -1 307.621 359.543)" fill="#E9D2B8"/>
<rect x="307.621" y="431.45" width="5.12701" height="71.9085" transform="rotate(180 307.621 431.45)" fill="#E9D2B8"/>
<rect x="302.492" y="441.723" width="41.0161" height="10.2726" transform="rotate(180 302.492 441.723)" fill="#E9D2B8"/>
<rect x="261.476" y="431.45" width="30.7621" height="10.2726" transform="rotate(180 261.476 431.45)" fill="#E9D2B8"/>
<rect x="230.715" y="441.723" width="66.6512" height="10.2726" transform="rotate(180 230.715 441.723)" fill="#E9D2B8"/>
<rect x="164.064" y="431.45" width="71.7782" height="10.2726" transform="rotate(180 164.064 431.45)" fill="#E9D2B8"/>
<rect x="92.2861" y="441.723" width="71.7782" height="10.2726" transform="rotate(180 92.2861 441.723)" fill="#E9D2B8"/>
<rect x="20.5092" y="431.45" width="10.254" height="10.2726" transform="rotate(180 20.5092 431.45)" fill="#E9D2B8"/>
<rect x="10.2527" y="421.18" width="5.12701" height="123.272" transform="rotate(180 10.2527 421.18)" fill="#E9D2B8"/>
<rect x="5.12701" y="297.909" width="5.12701" height="246.544" transform="rotate(180 5.12701 297.909)" fill="#E9D2B8"/>
<rect width="5.12701" height="20.5453" transform="matrix(1 0 0 -1 302.492 143.818)" fill="#E9D2B8"/>
<rect width="5.12701" height="30.8179" transform="matrix(1 0 0 -1 297.366 123.274)" fill="#E9D2B8"/>
<rect width="5.12701" height="10.2726" transform="matrix(1 0 0 -1 307.621 92.454)" fill="#E9D2B8"/>
<rect width="5.12701" height="20.5453" transform="matrix(1 0 0 -1 307.621 30.8168)" fill="#E9D2B8"/>
<rect width="5.12701" height="20.5453" transform="matrix(1 0 0 -1 302.492 20.5469)" fill="#E9D2B8"/>
<rect width="5.12701" height="61.6359" transform="matrix(1 0 0 -1 312.747 82.1806)" fill="#E9D2B8"/>
<rect x="5.12701" y="41.0938" width="15.381" height="10.2726" fill="#E9D2B8"/>
<rect x="20.5092" y="20.5469" width="5.12701" height="20.5453" fill="#E9D2B8"/>
<rect x="25.6349" y="10.2735" width="15.381" height="10.2726" fill="#E9D2B8"/>
<rect x="41.0154" width="143.556" height="10.2726" fill="#E9D2B8"/>
<rect x="184.572" y="10.2735" width="35.8891" height="10.2726" fill="#E9D2B8"/>
<rect x="220.46" width="82.0322" height="10.2726" fill="#E9D2B8"/>
<rect x="302.492" y="277.362" width="5.12701" height="20.5453" fill="#E9D2B8"/>
<rect x="302.492" y="184.908" width="5.12701" height="10.2726" fill="#E9D2B8"/>
<rect x="302.492" y="41.0938" width="10.254" height="10.2726" fill="#E9D2B8"/>
<rect x="307.621" y="51.3637" width="5.12701" height="10.2726" fill="#E9D2B8"/>
<rect x="235.843" y="10.2735" width="35.8891" height="10.2726" fill="#E9D2B8"/>
<rect x="246.096" y="20.5469" width="10.254" height="10.2726" fill="#E9D2B8"/>
<rect x="128.174" y="10.2735" width="10.254" height="10.2726" fill="#E9D2B8"/>
<rect x="133.302" y="20.5469" width="5.12701" height="10.2726" fill="#E9D2B8"/>
<rect x="164.064" y="10.2735" width="15.381" height="10.2726" fill="#E9D2B8"/>
<rect x="41.0154" y="10.2735" width="5.12701" height="10.2726" fill="#E9D2B8"/>
<rect x="41.0154" y="20.5469" width="10.254" height="10.2726" fill="#E9D2B8"/>
<rect x="5.12701" y="51.3637" width="5.12701" height="71.9085" fill="#E9D2B8"/>
<rect x="10.2527" y="51.3637" width="5.12701" height="41.0906" fill="#E9D2B8"/>
<rect x="5.12701" y="205.455" width="5.12701" height="51.3632" fill="#E9D2B8"/>
<rect x="10.2527" y="246.545" width="5.12701" height="30.8179" fill="#E9D2B8"/>
<rect x="5.12701" y="277.362" width="5.12701" height="20.5453" fill="#E9D2B8"/>
<rect x="10.2527" y="308.179" width="5.12701" height="71.9085" fill="#E9D2B8"/>
<rect x="10.2527" y="390.363" width="5.12701" height="10.2726" fill="#E9D2B8"/>
<rect x="41.0154" y="421.18" width="15.381" height="10.2726" fill="#E9D2B8"/>
<rect x="61.5251" y="421.18" width="10.254" height="10.2726" fill="#E9D2B8"/>
<rect x="123.049" y="410.906" width="20.5081" height="10.2726" fill="#E9D2B8"/>
<rect x="194.827" y="421.18" width="5.12701" height="10.2726" fill="#E9D2B8"/>
<rect x="215.333" y="421.18" width="10.254" height="10.2726" fill="#E9D2B8"/>
<rect x="246.096" y="410.906" width="10.254" height="10.2726" fill="#E9D2B8"/>
<rect x="281.986" y="421.18" width="5.12701" height="10.2726" fill="#E9D2B8"/>
</svg>
